<svg xmlns="http://www.w3.org/2000/svg" xmlns:xlink="http://www.w3.org/1999/xlink" width="500" zoomAndPan="magnify" viewBox="0 0 375 374.999991" height="500" preserveAspectRatio="xMidYMid meet" version="1.0"><defs><g/><clipPath id="84d6ba92c3"><path d="M 92.082031 133 L 172.878906 133 L 172.878906 240.628906 L 92.082031 240.628906 Z M 92.082031 133 " clip-rule="nonzero"/></clipPath><clipPath id="aa273609f6"><path d="M 172.878906 213.695312 L 172.878906 159.832031 L 92.082031 132.898438 L 92.082031 240.628906 Z M 172.878906 213.695312 " clip-rule="nonzero"/></clipPath></defs><g fill="#004aad" fill-opacity="1"><g transform="translate(52.984008, 322.401623)"><g><path d="M 271.28125 -216.96875 L 271.28125 -54.3125 L 216.96875 -54.3125 L 216.96875 0 L 0 0 L 0 -271.28125 L 216.96875 -271.28125 L 216.96875 -216.96875 Z M 54.3125 -54.3125 L 216.4375 -54.3125 L 216.4375 -216.96875 L 54.3125 -216.96875 Z M 54.3125 -54.3125 "/></g></g></g><g clip-path="url(#84d6ba92c3)"><g clip-path="url(#aa273609f6)"><path fill="#004aad" d="M 92.082031 240.628906 L 92.082031 133.003906 L 172.878906 133.003906 L 172.878906 240.628906 Z M 92.082031 240.628906 " fill-opacity="1" fill-rule="nonzero"/></g></g></svg>