<svg width="626" height="122" viewBox="0 0 626 122" fill="none" xmlns="http://www.w3.org/2000/svg">
<path d="M590.944 0H563.191L598.247 60.8473L563.191 121.799H590.944L626 60.8473L590.944 0Z" fill="#57C1FF"/>
<path d="M35.056 0H62.8087L27.7527 60.8473L62.8087 121.799H35.056L0 60.8473L35.056 0Z" fill="#57C1FF"/>
<path d="M52.3754 121.799L17.3194 60.8473L52.3754 0H573.625L608.681 60.8473L573.625 121.799H52.3754Z" fill="#003954"/>
<path fill-rule="evenodd" clip-rule="evenodd" d="M65.73 97.8573H87.8487C106.733 97.8573 125.513 86.8797 125.513 60.9517C125.513 33.8736 109.863 23.9415 88.7877 23.9415H65.73V97.8573ZM80.5453 38.2647H88.3703C103.916 38.2647 110.385 45.7922 110.385 60.8472C110.385 74.3339 103.29 83.4296 87.8487 83.4296H80.5453V38.2647Z" fill="white"/>
<path d="M142.415 97.8573V23.9415H193.643V38.3692H157.126V51.1241H178.306V65.4473H157.126V83.3251H195.208V97.7528H142.415V97.8573Z" fill="white"/>
<path d="M247.27 97.8573H232.976L206.789 23.9415H223.169L237.045 66.7018C238.402 70.7792 239.862 76.2158 240.488 78.8295C241.114 76.1112 242.471 70.9883 243.827 66.7018L257.39 23.9415H273.562L247.27 97.8573Z" fill="white"/>
<path fill-rule="evenodd" clip-rule="evenodd" d="M303.923 71.6156H320.199C335.536 71.6156 346.908 64.5063 346.804 47.3603C346.804 31.6781 335.327 23.9415 321.451 23.9415H289.212V97.8573H303.923V71.6156ZM304.027 38.2647H321.034C327.502 38.2647 331.78 41.192 331.78 47.674C331.78 54.156 328.128 57.2925 321.242 57.2925H304.027V38.2647Z" fill="white"/>
<path fill-rule="evenodd" clip-rule="evenodd" d="M359.115 60.8472C359.115 83.3251 371.009 99.0074 391.146 99.0074C411.282 99.0074 423.176 83.3251 423.176 60.8472C423.176 38.3692 411.282 22.687 391.146 22.687C371.009 22.687 359.115 38.3692 359.115 60.8472ZM374.244 60.8471C374.244 47.674 379.252 37.4282 391.146 37.4282C403.04 37.4282 408.048 47.674 408.048 60.8471C408.048 74.0202 403.04 84.266 391.146 84.266C379.147 84.266 374.244 74.0202 374.244 60.8471Z" fill="white"/>
<path d="M463.866 99.0074C451.555 99.0074 440.809 93.8845 435.175 85.6252L445.817 76.1113C451.033 82.1751 457.606 84.5797 464.701 84.5797C473.465 84.5797 477.534 82.1751 477.534 76.5294C477.534 71.8248 475.03 69.6292 461.049 66.4928C447.486 63.3563 437.992 58.9653 437.992 44.433C437.992 31.0508 449.781 22.7915 464.388 22.7915C475.865 22.7915 484.316 27.078 491.306 34.3964L480.664 44.7467C475.969 39.9374 470.648 37.1146 463.866 37.1146C455.937 37.1146 453.329 40.4602 453.329 43.8057C453.329 48.4059 456.459 49.9741 468.144 52.6924C479.829 55.4106 492.767 59.488 492.767 75.484C492.871 89.4935 484.003 99.0074 463.866 99.0074Z" fill="white"/>
<path d="M538.986 38.4737V97.8573H524.275V38.4737H503.095V23.9415H560.27V38.4737H538.986Z" fill="white"/>
</svg>
