<svg xmlns="http://www.w3.org/2000/svg" xmlns:xlink="http://www.w3.org/1999/xlink" width="2000" zoomAndPan="magnify" viewBox="0 0 1500 374.999991" height="500" preserveAspectRatio="xMidYMid meet" version="1.0"><defs><filter x="0%" y="0%" width="100%" height="100%" id="72b3c99e8f"><feColorMatrix values="0 0 0 0 1 0 0 0 0 1 0 0 0 0 1 0 0 0 1 0" color-interpolation-filters="sRGB"/></filter><mask id="67fa92b70b"><g filter="url(#72b3c99e8f)"><rect x="-150" width="1800" fill="#000000" y="-37.499999" height="449.999989" fill-opacity="0.52"/></g></mask><clipPath id="973d58dd2b"><path d="M 0.984375 0 L 246 0 L 246 196 L 0.984375 196 Z M 0.984375 0 " clip-rule="nonzero"/></clipPath><clipPath id="29d1491777"><rect x="0" width="246" y="0" height="201"/></clipPath><mask id="f7b1add58b"><g filter="url(#72b3c99e8f)"><rect x="-150" width="1800" fill="#000000" y="-37.499999" height="449.999989" fill-opacity="0.5"/></g></mask><clipPath id="80b0fc8170"><path d="M 1.308594 0 L 93 0 L 93 149.828125 L 1.308594 149.828125 Z M 1.308594 0 " clip-rule="nonzero"/></clipPath><clipPath id="2793da1afb"><rect x="0" width="93" y="0" height="150"/></clipPath></defs><g mask="url(#67fa92b70b)"><g transform="matrix(1, 0, 0, 1, 1254, 0)"><g clip-path="url(#29d1491777)"><g clip-path="url(#973d58dd2b)"><path fill="#38b6ff" d="M 123.492188 -49.292969 C 55.832031 -49.292969 0.984375 5.554688 0.984375 73.214844 C 0.984375 140.875 55.832031 195.722656 123.492188 195.722656 C 191.152344 195.722656 246 140.875 246 73.214844 C 246 5.554688 191.152344 -49.292969 123.492188 -49.292969 Z M 21.402344 73.214844 C 21.402344 16.832031 67.109375 -28.875 123.492188 -28.875 C 179.875 -28.875 225.582031 16.832031 225.582031 73.214844 C 225.582031 119.160156 195.230469 158.015625 153.488281 170.828125 C 154.628906 150.195312 154.234375 137.410156 152.3125 132.484375 C 150.285156 127.28125 148.628906 125.148438 147.636719 123.871094 C 146.988281 123.035156 146.621094 122.5625 146.621094 121.835938 C 146.621094 120.609375 147.484375 119.722656 149.210938 119.171875 C 164.25 115.847656 174.335938 106.601562 179.46875 91.4375 C 186.578125 70.429688 176.429688 55.152344 172.324219 48.96875 C 171.984375 48.460938 171.6875 48.011719 171.445312 47.625 C 168.25 42.585938 172.433594 30.320312 177.429688 20.5 C 160.441406 17.097656 153.957031 24.988281 150.234375 29.515625 C 148.714844 31.363281 147.65625 32.648438 146.535156 32.375 C 145.53125 32.132812 144.449219 31.65625 143.15625 31.089844 C 139.445312 29.457031 133.976562 27.054688 123.492188 27.054688 C 110.492188 27.054688 101.878906 31.59375 100.5625 32.289062 C 100.445312 32.351562 100.386719 32.375 100.386719 32.375 C 93.550781 22.851562 83.847656 18.894531 71.269531 20.5 C 74.734375 34.34375 74.996094 43.382812 72.050781 47.625 C 67.636719 53.988281 59.363281 68.792969 65.785156 91.4375 C 72.210938 114.085938 95.597656 119.171875 100.050781 119.171875 L 100.078125 119.175781 C 100.433594 119.253906 103.707031 119.960938 102.722656 122.730469 C 102.53125 123.464844 102.402344 124.46875 102.257812 125.597656 C 101.792969 129.222656 101.164062 134.148438 97.6875 135.75 C 93.125 137.851562 83.066406 139 78.859375 136.378906 C 77.457031 135.503906 76.449219 133.675781 75.234375 131.476562 C 72.808594 127.070312 69.554688 121.167969 60.660156 118.421875 C 47.320312 114.300781 48.15625 119.746094 51.488281 121.082031 C 52.21875 121.378906 53.191406 121.652344 54.300781 121.96875 C 58.226562 123.078125 63.878906 124.679688 66.773438 129.339844 C 67.625 130.707031 68.496094 132.203125 69.390625 133.730469 C 72.402344 138.894531 75.632812 144.425781 78.859375 146.546875 C 81.644531 148.378906 88.328125 149.113281 98.902344 148.75 C 98.445312 158.730469 98.199219 166.527344 98.167969 172.140625 C 54.035156 160.875 21.402344 120.855469 21.402344 73.214844 Z M 21.402344 73.214844 " fill-opacity="0.85" fill-rule="evenodd"/></g></g></g></g><g mask="url(#f7b1add58b)"><g transform="matrix(1, 0, 0, 1, 1407, 126)"><g clip-path="url(#2793da1afb)"><g clip-path="url(#80b0fc8170)"><path fill="#5ce1e6" d="M 22.136719 55.003906 L 22.136719 130.28125 C 22.136719 140.945312 28.878906 149.820312 37.585938 149.820312 L 121.972656 149.820312 C 130.527344 149.820312 137.277344 140.992188 137.421875 130.476562 L 137.421875 34.832031 C 137.421875 34.238281 137.175781 33.671875 136.742188 33.265625 C 133.707031 30.414062 129.109375 25.96875 120.84375 17.917969 C 120.796875 17.875 120.796875 17.875 120.75 17.828125 C 107.414062 4.84375 106.050781 3.519531 103.511719 1.136719 C 103.113281 0.761719 102.585938 0.554688 102.039062 0.554688 L 37.585938 0.554688 C 29.117188 0.554688 22.136719 11.335938 22.136719 22.464844 C 22.136719 23.652344 23.101562 24.617188 24.289062 24.617188 C 25.476562 24.617188 26.4375 23.652344 26.4375 22.464844 C 26.4375 13.421875 31.984375 4.855469 37.585938 4.855469 L 102.039062 4.855469 L 100.566406 4.273438 C 103.074219 6.628906 104.460938 7.972656 117.75 20.910156 C 117.796875 20.957031 117.796875 20.957031 117.84375 21 C 126.132812 29.074219 130.734375 33.523438 133.796875 36.398438 L 133.121094 34.832031 L 133.121094 130.445312 C 133.003906 138.800781 127.867188 145.519531 121.972656 145.519531 L 37.585938 145.519531 C 31.550781 145.519531 26.4375 138.789062 26.4375 130.28125 L 26.4375 55.003906 C 26.4375 53.816406 25.476562 52.855469 24.289062 52.855469 C 23.101562 52.855469 22.136719 53.816406 22.136719 55.003906 Z M 99.890625 2.707031 L 99.890625 26.363281 C 99.890625 26.4375 99.894531 26.511719 99.902344 26.582031 C 100.589844 33.351562 105.03125 36.980469 111.621094 36.980469 L 135.269531 36.980469 C 137.203125 36.980469 138.15625 34.628906 136.765625 33.285156 L 103.535156 1.160156 C 102.167969 -0.160156 99.890625 0.808594 99.890625 2.707031 Z M 104.191406 2.707031 L 100.546875 4.25 L 133.777344 36.378906 L 135.269531 32.679688 L 111.621094 32.679688 C 107.152344 32.679688 104.636719 30.621094 104.179688 26.148438 L 104.191406 26.363281 Z M 1.308594 51.105469 C 1.308594 54.621094 4.949219 57.105469 9.09375 57.15625 L 45.40625 57.15625 C 49.609375 57.15625 53.277344 54.671875 53.277344 51.105469 L 53.277344 26.363281 C 53.277344 22.816406 49.632812 20.316406 45.40625 20.316406 L 9.175781 20.316406 C 4.972656 20.316406 1.308594 22.796875 1.308594 26.363281 Z M 5.609375 51.105469 L 5.609375 26.363281 C 5.609375 25.609375 7.074219 24.617188 9.175781 24.617188 L 45.40625 24.617188 C 47.523438 24.617188 48.976562 25.613281 48.976562 26.363281 L 48.976562 51.105469 C 48.976562 51.863281 47.511719 52.855469 45.40625 52.855469 L 9.121094 52.855469 C 7.082031 52.828125 5.609375 51.824219 5.609375 51.105469 Z M 30.816406 69.304688 L 30.816406 101.777344 C 30.816406 102.523438 31.421875 103.128906 32.167969 103.128906 C 32.914062 103.128906 33.519531 102.523438 33.519531 101.777344 L 33.519531 69.304688 C 33.519531 68.558594 32.914062 67.953125 32.167969 67.953125 C 31.421875 67.953125 30.816406 68.558594 30.816406 69.304688 Z M 30.816406 113.371094 L 30.816406 126.226562 C 30.816406 126.972656 31.421875 127.578125 32.167969 127.578125 C 32.914062 127.578125 33.519531 126.972656 33.519531 126.226562 L 33.519531 113.371094 C 33.519531 112.625 32.914062 112.019531 32.167969 112.019531 C 31.421875 112.019531 30.816406 112.625 30.816406 113.371094 Z M 113.8125 2.519531 L 126.738281 15.445312 C 127.265625 15.976562 128.121094 15.976562 128.648438 15.445312 C 129.179688 14.917969 129.179688 14.0625 128.648438 13.535156 L 115.722656 0.609375 C 115.195312 0.0820312 114.339844 0.0820312 113.8125 0.609375 C 113.285156 1.136719 113.285156 1.992188 113.8125 2.519531 Z M 131.351562 20.0625 L 136.46875 25.179688 C 136.996094 25.707031 137.851562 25.707031 138.382812 25.179688 C 138.910156 24.648438 138.910156 23.792969 138.382812 23.265625 L 133.265625 18.148438 C 132.738281 17.621094 131.878906 17.621094 131.351562 18.148438 C 130.824219 18.679688 130.824219 19.535156 131.351562 20.0625 Z M 112.199219 94.878906 L 47.359375 94.878906 C 46.652344 94.878906 46.082031 95.453125 46.082031 96.160156 C 46.082031 96.867188 46.652344 97.4375 47.359375 97.4375 L 112.199219 97.4375 C 112.90625 97.4375 113.476562 96.867188 113.476562 96.160156 C 113.476562 95.453125 112.90625 94.878906 112.199219 94.878906 Z M 112.199219 110.730469 L 47.359375 110.730469 C 46.652344 110.730469 46.082031 111.304688 46.082031 112.011719 C 46.082031 112.71875 46.652344 113.292969 47.359375 113.292969 L 112.199219 113.292969 C 112.90625 113.292969 113.476562 112.71875 113.476562 112.011719 C 113.476562 111.304688 112.90625 110.730469 112.199219 110.730469 Z M 112.199219 126.585938 L 47.359375 126.585938 C 46.652344 126.585938 46.082031 127.160156 46.082031 127.867188 C 46.082031 128.574219 46.652344 129.144531 47.359375 129.144531 L 112.199219 129.144531 C 112.90625 129.144531 113.476562 128.574219 113.476562 127.867188 C 113.476562 127.160156 112.90625 126.585938 112.199219 126.585938 Z M 112.199219 63.414062 L 47.359375 63.414062 C 46.652344 63.414062 46.082031 63.984375 46.082031 64.691406 C 46.082031 65.398438 46.652344 65.972656 47.359375 65.972656 L 112.199219 65.972656 C 112.90625 65.972656 113.476562 65.398438 113.476562 64.691406 C 113.476562 63.984375 112.90625 63.414062 112.199219 63.414062 Z M 112.199219 79.265625 L 47.359375 79.265625 C 46.652344 79.265625 46.082031 79.839844 46.082031 80.546875 C 46.082031 81.253906 46.652344 81.828125 47.359375 81.828125 L 112.199219 81.828125 C 112.90625 81.828125 113.476562 81.253906 113.476562 80.546875 C 113.476562 79.839844 112.90625 79.265625 112.199219 79.265625 Z M 18.152344 35.75 C 18.152344 34.941406 18.007812 34.277344 17.71875 33.75 C 17.429688 33.222656 17.019531 32.78125 16.492188 32.425781 C 16.046875 32.128906 15.535156 31.910156 14.957031 31.769531 C 14.382812 31.632812 13.675781 31.5625 12.84375 31.5625 L 9.085938 31.5625 L 9.085938 45.421875 L 10.925781 45.421875 L 10.925781 40.253906 L 12.769531 40.253906 C 13.761719 40.253906 14.585938 40.136719 15.238281 39.894531 C 15.890625 39.65625 16.453125 39.300781 16.929688 38.820312 C 17.316406 38.4375 17.617188 37.980469 17.828125 37.457031 C 18.042969 36.933594 18.152344 36.363281 18.152344 35.75 Z M 16.234375 35.796875 C 16.234375 36.207031 16.171875 36.574219 16.050781 36.902344 C 15.929688 37.234375 15.722656 37.546875 15.433594 37.84375 C 15.140625 38.136719 14.761719 38.347656 14.296875 38.480469 C 13.832031 38.613281 13.226562 38.683594 12.480469 38.683594 L 10.925781 38.683594 L 10.925781 33.144531 L 12.75 33.144531 C 13.335938 33.144531 13.816406 33.183594 14.199219 33.269531 C 14.582031 33.351562 14.921875 33.492188 15.21875 33.683594 C 15.558594 33.90625 15.8125 34.195312 15.980469 34.550781 C 16.148438 34.902344 16.234375 35.320312 16.234375 35.796875 Z M 32.289062 38.503906 C 32.289062 37.160156 32.023438 35.996094 31.496094 35.015625 C 30.96875 34.035156 30.234375 33.25 29.292969 32.660156 C 28.738281 32.316406 28.066406 32.050781 27.265625 31.855469 C 26.46875 31.660156 25.394531 31.5625 24.042969 31.5625 L 20.578125 31.5625 L 20.578125 45.421875 L 24.078125 45.421875 C 25.351562 45.421875 26.375 45.332031 27.15625 45.160156 C 27.933594 44.984375 28.640625 44.703125 29.273438 44.3125 C 30.183594 43.75 30.914062 42.953125 31.464844 41.929688 C 32.015625 40.90625 32.289062 39.765625 32.289062 38.503906 Z M 30.363281 38.476562 C 30.363281 39.554688 30.191406 40.457031 29.84375 41.175781 C 29.5 41.894531 28.984375 42.476562 28.296875 42.917969 C 27.742188 43.269531 27.136719 43.511719 26.476562 43.644531 C 25.816406 43.773438 25.042969 43.839844 24.152344 43.839844 L 22.421875 43.839844 L 22.421875 33.144531 L 24.152344 33.144531 C 25.011719 33.144531 25.746094 33.203125 26.359375 33.324219 C 26.972656 33.445312 27.554688 33.660156 28.101562 33.972656 C 28.851562 34.398438 29.414062 34.988281 29.792969 35.730469 C 30.171875 36.476562 30.363281 37.390625 30.363281 38.476562 Z M 44.117188 31.5625 L 35.265625 31.5625 L 35.265625 45.421875 L 37.109375 45.421875 L 37.109375 38.746094 L 43.132812 38.746094 L 43.132812 37.109375 L 37.109375 37.109375 L 37.109375 33.199219 L 44.117188 33.199219 Z M 44.117188 31.5625 " fill-opacity="1" fill-rule="nonzero"/></g><path fill="#5ce1e6" d="M 18.152344 35.664062 C 18.152344 34.855469 18.007812 34.1875 17.71875 33.660156 C 17.429688 33.132812 17.019531 32.691406 16.492188 32.339844 C 16.046875 32.042969 15.535156 31.824219 14.957031 31.683594 C 14.382812 31.542969 13.675781 31.472656 12.84375 31.472656 L 9.085938 31.472656 L 9.085938 45.332031 L 10.925781 45.332031 L 10.925781 40.167969 L 12.769531 40.167969 C 13.761719 40.167969 14.585938 40.046875 15.238281 39.808594 C 15.890625 39.570312 16.453125 39.210938 16.929688 38.734375 C 17.316406 38.347656 17.617188 37.894531 17.828125 37.371094 C 18.042969 36.847656 18.152344 36.277344 18.152344 35.664062 Z M 16.234375 35.710938 C 16.234375 36.117188 16.171875 36.488281 16.050781 36.816406 C 15.929688 37.144531 15.722656 37.457031 15.433594 37.757812 C 15.140625 38.046875 14.761719 38.261719 14.296875 38.394531 C 13.832031 38.527344 13.226562 38.59375 12.480469 38.59375 L 10.925781 38.59375 L 10.925781 33.054688 L 12.75 33.054688 C 13.335938 33.054688 13.816406 33.097656 14.199219 33.183594 C 14.582031 33.265625 14.921875 33.402344 15.21875 33.597656 C 15.558594 33.820312 15.8125 34.109375 15.980469 34.460938 C 16.148438 34.816406 16.234375 35.230469 16.234375 35.710938 Z M 32.289062 38.417969 C 32.289062 37.070312 32.023438 35.90625 31.496094 34.925781 C 30.96875 33.945312 30.234375 33.160156 29.292969 32.574219 C 28.738281 32.230469 28.066406 31.960938 27.265625 31.765625 C 26.46875 31.570312 25.394531 31.472656 24.042969 31.472656 L 20.578125 31.472656 L 20.578125 45.332031 L 24.078125 45.332031 C 25.351562 45.332031 26.375 45.246094 27.15625 45.074219 C 27.933594 44.898438 28.640625 44.617188 29.273438 44.226562 C 30.183594 43.660156 30.914062 42.867188 31.464844 41.84375 C 32.015625 40.820312 32.289062 39.675781 32.289062 38.417969 Z M 30.363281 38.390625 C 30.363281 39.46875 30.191406 40.367188 29.84375 41.089844 C 29.5 41.808594 28.984375 42.390625 28.296875 42.828125 C 27.742188 43.183594 27.136719 43.425781 26.476562 43.554688 C 25.816406 43.6875 25.042969 43.75 24.152344 43.75 L 22.421875 43.75 L 22.421875 33.054688 L 24.152344 33.054688 C 25.011719 33.054688 25.746094 33.117188 26.359375 33.238281 C 26.972656 33.359375 27.554688 33.574219 28.101562 33.882812 C 28.851562 34.3125 29.414062 34.898438 29.792969 35.644531 C 30.171875 36.386719 30.363281 37.304688 30.363281 38.390625 Z M 44.117188 31.472656 L 35.265625 31.472656 L 35.265625 45.332031 L 37.109375 45.332031 L 37.109375 38.660156 L 43.132812 38.660156 L 43.132812 37.019531 L 37.109375 37.019531 L 37.109375 33.113281 L 44.117188 33.113281 Z M 44.117188 31.472656 " fill-opacity="1" fill-rule="nonzero"/></g></g></g></svg>