<svg xmlns="http://www.w3.org/2000/svg" width="1080" viewBox="0 0 810 810" height="1080" version="1.0"><defs><clipPath id="k"><path d="M464 532h34v43.398h-34zm0 0"/></clipPath><clipPath id="a"><path d="M1 532h46v43.398H1zm0 0"/></clipPath><clipPath id="c"><path d="M97 532h34v43.398H97zm0 0"/></clipPath><clipPath id="d"><path d="M139 532h37v43.398h-37zm0 0"/></clipPath><clipPath id="e"><path d="M185 532h38v43.398h-38zm0 0"/></clipPath><clipPath id="f"><path d="M252 532h29v43.398h-29zm0 0"/></clipPath><clipPath id="g"><path d="M286 532h34v43.398h-34zm0 0"/></clipPath><clipPath id="h"><path d="M329 532h36v43.398h-36zm0 0"/></clipPath><clipPath id="i"><path d="M374 532h37v43.398h-37zm0 0"/></clipPath><clipPath id="j"><path d="M419 532h37v43.398h-37zm0 0"/></clipPath><clipPath id="b"><path d="M55 532h37v43.398H55zm0 0"/></clipPath><clipPath id="l"><path d="M527 532h37v43.398h-37zm0 0"/></clipPath><clipPath id="m"><path d="M573 532h37v43.398h-37zm0 0"/></clipPath><clipPath id="n"><path d="M618 532h34v43.398h-34zm0 0"/></clipPath><clipPath id="o"><path d="M661 532h40v43.398h-40zm0 0"/></clipPath><clipPath id="p"><path d="M707 532h12v43.398h-12zm0 0"/></clipPath><clipPath id="q"><path d="M727 532h37v43.398h-37zm0 0"/></clipPath><clipPath id="r"><path d="M772 532h37v43.398h-37zm0 0"/></clipPath><clipPath id="s"><path d="M0 234.898h286V512H0zm0 0"/></clipPath><clipPath id="t"><path d="M327 234.898h200V512H327zm0 0"/></clipPath><clipPath id="u"><path d="M568 234.898h241V513H568zm0 0"/></clipPath></defs><g clip-path="url(#a)"><path fill="#242425" d="M41.746 533.117a7.287 7.287 0 0 1 3.145 2.625 7.2 7.2 0 0 1 .89 1.867c.211.664.32 1.348.332 2.043v34.418c-.004.157-.035.301-.093.442-.063.14-.149.265-.258.37a1.147 1.147 0 0 1-.817.337h-8.48a.977.977 0 0 1-.781-.313 1.198 1.198 0 0 1-.313-.836v-31.242h-6.84v31.242c0 .313-.101.582-.312.809a.84.84 0 0 1-.782.34h-7.804c-.153 0-.297-.032-.438-.09a1.082 1.082 0 0 1-.37-.246 1.195 1.195 0 0 1-.25-.371 1.216 1.216 0 0 1-.087-.442v-31.242h-6.71v31.242a.96.96 0 0 1-.024.395.963.963 0 0 1-.168.355 1.016 1.016 0 0 1-.668.399H2.203c-.27.039-.515-.02-.742-.172a1.003 1.003 0 0 1-.426-.637v-40.719a1.031 1.031 0 0 1 .02-.394c.035-.129.093-.25.172-.356.082-.109.18-.195.293-.265.117-.067.242-.114.375-.133h37.039a6.517 6.517 0 0 1 2.812.574zm0 0"/></g><g clip-path="url(#b)"><path fill="#242425" d="M84.273 532.543a7.186 7.186 0 0 1 3.98 1.184c.59.386 1.114.855 1.563 1.398.454.543.817 1.14 1.094 1.793.399.879.598 1.797.598 2.762v34.418c.008.148-.016.293-.07.433-.051.14-.13.266-.231.375a1.082 1.082 0 0 1-.793.336h-8.531a1.175 1.175 0 0 1-.82-.332 1.103 1.103 0 0 1-.254-.37 1.152 1.152 0 0 1-.098-.442v-10.934a1.115 1.115 0 0 0-.285-.809.942.942 0 0 0-.809-.34H67.551c-.156 0-.301.032-.446.09-.14.055-.265.141-.375.247-.109.105-.195.23-.253.37-.063.141-.094.29-.098.442v10.934a1.003 1.003 0 0 1-.465 1.016.938.938 0 0 1-.367.128h-8.715a.978.978 0 0 1-.398 0 1.002 1.002 0 0 1-.774-.832v-34.73c0-.957.18-1.88.547-2.762a6.694 6.694 0 0 1 1.535-2.367 7.477 7.477 0 0 1 2.367-1.54 6.636 6.636 0 0 1 2.758-.57zm-3.664 20.336v-10.754H66.301v10.727zm0 0"/></g><g clip-path="url(#c)"><path fill="#242425" d="M129.852 532.883c.246.21.359.48.335.808v34.47a6.654 6.654 0 0 1-.57 2.76 7.831 7.831 0 0 1-1.535 2.372 6.433 6.433 0 0 1-2.344 1.535 7.22 7.22 0 0 1-2.781.547h-18.21c-.962 0-1.892-.18-2.782-.547a7.186 7.186 0 0 1-1.8-1.094 7.098 7.098 0 0 1-2.285-3.484 7.14 7.14 0 0 1-.286-2.09v-13.015a1 1 0 0 1 .191-.762c.168-.227.39-.363.668-.41h8.715c.277-.032.527.035.754.199.223.164.363.387.414.66v9.035c-.016.313.09.582.312.805.243.207.52.3.832.289h8.844c.309.012.578-.082.809-.29.246-.21.36-.48.336-.804v-30.176c0-.312.101-.582.312-.808.211-.25.48-.363.809-.34h8.48a.983.983 0 0 1 .782.34zm0 0"/></g><g clip-path="url(#d)"><path fill="#242425" d="M168.426 532.543a6.702 6.702 0 0 1 2.758.574c.859.352 1.617.86 2.273 1.52a6.815 6.815 0 0 1 1.5 2.281c.398.879.598 1.797.598 2.762v28.351a6.838 6.838 0 0 1-.598 2.785 7.15 7.15 0 0 1-1.512 2.344 6.423 6.423 0 0 1-2.367 1.535 6.488 6.488 0 0 1-2.754.547h-21.488a6.648 6.648 0 0 1-2.73-.57 7.01 7.01 0 0 1-1.778-1.063 6.908 6.908 0 0 1-1.394-1.527 6.98 6.98 0 0 1-.891-1.871 7.014 7.014 0 0 1-.309-2.05v-28.352c0-.965.18-1.895.547-2.786a6.317 6.317 0 0 1 1.508-2.343 7.466 7.466 0 0 1 2.367-1.535 6.579 6.579 0 0 1 2.758-.575zm-3.668 10.418h-14.305v21.973h14.461zm0 0"/></g><g clip-path="url(#e)"><path fill="#242425" d="M222.3 574.281a.56.56 0 0 1 .118.352c0 .129-.04.246-.117.351a.663.663 0 0 1-.653.286h-9.675a1.807 1.807 0 0 1-.965-.286 1.977 1.977 0 0 1-.754-.703l-6.32-11.586a.407.407 0 0 0-.442-.234h-7.363a.257.257 0 0 0-.313.207v11.352a.96.96 0 0 1-.023.394.928.928 0 0 1-.18.356.997.997 0 0 1-.68.371h-8.663a.981.981 0 0 1-.739-.184.99.99 0 0 1-.406-.652.703.703 0 0 1 0-.313v-40.3a1.034 1.034 0 0 1 .176-.75.987.987 0 0 1 .66-.399h27.883c.96 0 1.879.187 2.758.574a7.166 7.166 0 0 1 2.25 1.54 7.17 7.17 0 0 1 1.523 2.261c.387.879.578 1.8.57 2.762v16.035a6.747 6.747 0 0 1-1.379 4.195 6.54 6.54 0 0 1-3.511 2.602h-.18c-.29 0-.363.207-.21.363zm-12.124-31.789H195.48v10.414h14.696zm0 0"/></g><g clip-path="url(#f)"><path fill="#242425" d="M279.684 564.883a.964.964 0 0 1 .804.312c.215.235.317.512.313.832v8.07c.004.313-.102.579-.313.81a.902.902 0 0 1-.804.335h-26.325a.996.996 0 0 1-.754-.18 1.01 1.01 0 0 1-.417-.652v-40.719a.96.96 0 0 1 .023-.394.94.94 0 0 1 .172-.356.955.955 0 0 1 .293-.265 1.03 1.03 0 0 1 .37-.133h8.716c.133-.016.261-.008.394.023.13.036.246.09.356.172.105.082.191.18.261.293.07.117.114.239.133.371a.52.52 0 0 1 0 .29v30.097c-.011.32.102.59.336.805.238.215.516.316.832.312zm0 0"/></g><g clip-path="url(#g)"><path fill="#242425" d="M319.117 532.883a.996.996 0 0 1 .34.808v7.68a.922.922 0 0 1-.34.809 1.14 1.14 0 0 1-.805.312h-20.445a.222.222 0 0 0-.191.035.22.22 0 0 0-.094.172v6.637c0 .156 0 .234.285.234h17.426a.922.922 0 0 1 .781.34c.211.227.317.496.313.809v6.117c.004.312-.102.578-.313.809a.92.92 0 0 1-.781.335h-17.426c-.16-.02-.258.051-.285.211v6.586a.212.212 0 0 0 .016.2.226.226 0 0 0 .164.113h20.629c.148 0 .293.027.433.086.137.054.258.136.367.238.106.106.192.227.25.363.059.141.09.282.094.434v7.809a1.113 1.113 0 0 1-.32.808c-.102.11-.227.192-.363.25-.141.059-.286.086-.434.086h-30.41a1 1 0 0 1-.754-.18 1.01 1.01 0 0 1-.418-.652v-40.64c.004-.157.035-.301.098-.442a1.162 1.162 0 0 1 .632-.617c.141-.059.29-.09.442-.09h30.383c.289.02.53.133.726.34zm0 0"/></g><g clip-path="url(#h)"><path fill="#242425" d="M357.8 532.543a6.685 6.685 0 0 1 2.782.574c.86.352 1.617.856 2.273 1.512a6.884 6.884 0 0 1 1.528 2.266c.387.875.578 1.796.57 2.757v34.418c.008.153-.015.297-.066.438a1.15 1.15 0 0 1-.235.37 1.105 1.105 0 0 1-.793.34h-8.609c-.152 0-.297-.03-.438-.09a1.082 1.082 0 0 1-.37-.245 1.131 1.131 0 0 1-.337-.813v-10.933a1.139 1.139 0 0 0-.312-.809.912.912 0 0 0-.805-.336h-11.89a1.153 1.153 0 0 0-.817.332c-.11.11-.195.23-.254.371-.062.14-.093.29-.097.442v10.933a.96.96 0 0 1-.024.395.913.913 0 0 1-.172.355.955.955 0 0 1-.293.266.962.962 0 0 1-.37.133h-8.716a.985.985 0 0 1-1.012-.465.962.962 0 0 1-.132-.371.605.605 0 0 1 0-.313v-34.39c0-.957.18-1.88.547-2.762a6.694 6.694 0 0 1 1.535-2.367 7.477 7.477 0 0 1 2.367-1.54 6.515 6.515 0 0 1 2.758-.57zm-3.644 20.336v-10.754h-14.332v10.727zm0 0"/></g><g clip-path="url(#i)"><path fill="#242425" d="M409.957 552.281c.23.23.332.508.309.832v15.047a6.654 6.654 0 0 1-.57 2.762 8.347 8.347 0 0 1-1.509 2.371 6.694 6.694 0 0 1-2.367 1.535 7.19 7.19 0 0 1-2.757.547h-21.59a7.27 7.27 0 0 1-1.395-.133 7.071 7.071 0 0 1-2.574-1.063 7.343 7.343 0 0 1-1.082-.886 7.388 7.388 0 0 1-.887-1.082 7.36 7.36 0 0 1-.656-1.238 6.964 6.964 0 0 1-.402-1.34 7.24 7.24 0 0 1-.133-1.395V539.86c0-.953.183-1.875.547-2.757a6.292 6.292 0 0 1 1.507-2.372 7.835 7.835 0 0 1 2.34-1.535 7.266 7.266 0 0 1 2.785-.574h25.309a1.182 1.182 0 0 1 .828.344c.11.11.195.238.254.383.063.14.09.293.09.445v8.047a1.175 1.175 0 0 1-1.172 1.172h-20.418a1.17 1.17 0 0 0-.832.312 1.12 1.12 0 0 0-.34.805v19.762c.004.308.117.57.34.78.23.227.508.329.832.313h12.07c.137.008.27-.011.403-.058a1.016 1.016 0 0 0 .59-.535c.058-.125.093-.258.101-.395V553.22a1.039 1.039 0 0 1 .067-.438c.05-.14.128-.261.234-.37.101-.11.223-.192.36-.25.136-.06.28-.09.429-.09h8.531c.278-.024.531.046.758.21zm0 0"/></g><g clip-path="url(#j)"><path fill="#242425" d="M454.93 532.883c.226.222.34.492.34.808v34.47a6.73 6.73 0 0 1-.598 2.76 7.824 7.824 0 0 1-1.508 2.372 6.694 6.694 0 0 1-2.367 1.535 7.253 7.253 0 0 1-2.785.547h-21.59a7.094 7.094 0 0 1-5.04-2.074 7.106 7.106 0 0 1-1.542-2.274 7.272 7.272 0 0 1-.547-2.789v-34.547a1.032 1.032 0 0 1 .195-.75.955.955 0 0 1 .293-.265 1.03 1.03 0 0 1 .371-.133h8.715c.133-.016.262-.008.395.023.129.036.246.09.355.172.106.078.195.18.262.293.07.117.113.239.133.371a.52.52 0 0 1 0 .29v30.097c-.012.32.101.59.336.805.238.215.515.316.836.312h12.066c.305.004.566-.097.781-.312a.912.912 0 0 0 .313-.805v-30.098c.004-.156.035-.3.097-.441.059-.14.145-.266.254-.371.11-.11.235-.192.38-.246.14-.059.288-.09.44-.09h8.481a.949.949 0 0 1 .934.34zm0 0"/></g><g clip-path="url(#k)"><path fill="#242425" d="M497.176 532.883c.222.222.336.492.34.808v7.68c.011.32-.102.59-.34.809-.235.21-.516.316-.832.312h-20.422a.242.242 0 0 0-.2.035.243.243 0 0 0-.109.172v6.742c0 .157 0 .235.309.235h17.43a.965.965 0 0 1 .78.34c.212.226.317.496.313.804v6.121c.004.309-.101.579-.312.805a.965.965 0 0 1-.781.34h-17.43c-.164-.02-.266.047-.309.207v6.691a.264.264 0 0 0 .035.203.256.256 0 0 0 .172.11h20.524c.152 0 .297.027.437.086a1.161 1.161 0 0 1 .63.601c.062.137.097.282.105.434v7.809c0 .152-.028.296-.086.433a1.137 1.137 0 0 1-1.035.715h-30.329a.98.98 0 0 1-.398-.012 1.035 1.035 0 0 1-.36-.164.92.92 0 0 1-.273-.289 1.044 1.044 0 0 1-.14-.37.605.605 0 0 1 0-.313V533.69c.003-.156.035-.3.097-.441.059-.14.145-.266.254-.371.11-.11.234-.192.375-.246.145-.059.29-.09.445-.09h30.278c.328-.012.605.102.832.34zm0 0"/></g><g clip-path="url(#l)"><path fill="#242425" d="M562.598 532.543a1.1 1.1 0 0 1 .433.07 1.102 1.102 0 0 1 .625.594c.059.137.086.281.086.43v40.46c.004.153-.023.298-.078.438s-.133.266-.238.371a1.115 1.115 0 0 1-.8.336h-8.509c-.152 0-.3-.027-.441-.086a1.173 1.173 0 0 1-.633-.617c-.059-.14-.09-.289-.094-.441V559.91a1.19 1.19 0 0 0-.058-.406 1.026 1.026 0 0 0-.211-.348 1.038 1.038 0 0 0-.72-.34h-12.148a1.117 1.117 0 0 0-.832.313.915.915 0 0 0-.34.805v14.191a1.025 1.025 0 0 1-.191.75c-.082.105-.18.195-.297.262a.962.962 0 0 1-.37.133.506.506 0 0 1-.286 0h-8.402a1.025 1.025 0 0 1-.75-.191 1.003 1.003 0 0 1-.262-.298.962.962 0 0 1-.133-.37.506.506 0 0 1 0-.286v-40.434a.96.96 0 0 1 .024-.394.993.993 0 0 1 .465-.621 1.03 1.03 0 0 1 .37-.133h8.715a1.02 1.02 0 0 1 1.145.86.52.52 0 0 1 0 .288v13.641c-.02.133-.012.266.02.395.035.128.093.25.171.355.082.11.18.195.293.266.118.066.239.113.371.132h12.36a.976.976 0 0 0 .804-.312c.211-.238.317-.516.313-.836v-13.668c.004-.152.035-.3.098-.441a1.143 1.143 0 0 1 .629-.618c.144-.058.289-.085.445-.085h8.453zm0 0"/></g><g clip-path="url(#m)"><path fill="#242425" d="M602.086 532.543a6.703 6.703 0 0 1 2.785.574 6.934 6.934 0 0 1 2.274 1.512 6.934 6.934 0 0 1 1.523 2.266c.39.875.582 1.796.57 2.757v34.418c.008.153-.015.297-.066.438-.05.14-.129.262-.235.37-.101.11-.222.192-.359.25-.137.06-.281.09-.43.09h-8.535c-.148 0-.297-.03-.437-.09a1.12 1.12 0 0 1-.617-.616c-.059-.14-.09-.29-.09-.442v-10.933a1.139 1.139 0 0 0-.313-.809.908.908 0 0 0-.804-.336h-12.098a1.134 1.134 0 0 0-1.055.707c-.058.14-.09.285-.09.438v10.933c.02.133.012.266-.02.395a.97.97 0 0 1-.171.355c-.082.11-.18.196-.293.266a.986.986 0 0 1-.371.133h-8.715a.98.98 0 0 1-.398-.012 1.035 1.035 0 0 1-.633-.453 1.017 1.017 0 0 1-.14-.371V539.68c0-.957.179-1.88.546-2.762a6.694 6.694 0 0 1 1.535-2.367 7.705 7.705 0 0 1 2.367-1.54 6.761 6.761 0 0 1 2.758-.57zm-3.64 20.336v-10.754h-14.337v10.727zm0 0"/></g><g clip-path="url(#n)"><path fill="#242425" d="M629.71 543.219a.967.967 0 0 0-.312.808v19.762a.964.964 0 0 0 .313.805c.238.215.516.316.832.312h19.59c.148-.008.293.016.433.07a1.078 1.078 0 0 1 .621.594c.06.137.09.282.09.43v8.125c.008.148-.015.293-.07.434-.05.14-.129.265-.23.37a1.082 1.082 0 0 1-.793.34h-24.375a6.964 6.964 0 0 1-2.758-.546 6.694 6.694 0 0 1-2.367-1.535 7.581 7.581 0 0 1-1.524-2.407 7.574 7.574 0 0 1-.531-2.8v-28.278a7.033 7.033 0 0 1 .547-2.758 6.292 6.292 0 0 1 1.508-2.37 7.623 7.623 0 0 1 2.367-1.536 6.579 6.579 0 0 1 2.758-.574h24.324a1.155 1.155 0 0 1 1.144 1.12v8.099c.004.148-.023.293-.074.433a1.168 1.168 0 0 1-.59.633 1.178 1.178 0 0 1-.43.105h-19.64a1.124 1.124 0 0 0-.832.364zm0 0"/></g><g clip-path="url(#o)"><path fill="#242425" d="M685.172 550.535c-.125.14-.125.278 0 .418l14.148 23.43a.557.557 0 0 1 .121.351c0 .133-.039.25-.12.352a.656.656 0 0 1-.65.289h-10.144a1.811 1.811 0 0 1-.965-.29 1.661 1.661 0 0 1-.726-.702l-9.129-16.637c0-.234-.234-.234-.312 0l-5.047 5.547c-.243.258-.414.55-.52.887-.137.332-.207.68-.21 1.039v9.035c.034.277-.032.531-.2.754a1.012 1.012 0 0 1-.66.418h-8.531a1.025 1.025 0 0 1-.75-.191 1.003 1.003 0 0 1-.262-.298.962.962 0 0 1-.133-.37.606.606 0 0 1 0-.313V533.69a1.001 1.001 0 0 1 .195-.75.955.955 0 0 1 .293-.265 1.03 1.03 0 0 1 .371-.133h8.715c.133-.016.262-.008.395.023.129.036.246.09.355.172a1.04 1.04 0 0 1 .395.664.52.52 0 0 1 0 .29v18.222l15.738-18.434c.18-.277.406-.511.676-.703a2.391 2.391 0 0 1 1.039-.234h10.121c.336 0 .52 0 .598.234.078.235 0 .391-.207.625zm0 0"/></g><g clip-path="url(#p)"><path fill="#242425" d="M718.078 574.098a1.003 1.003 0 0 1-.465 1.016.96.96 0 0 1-.367.128h-8.664a1.03 1.03 0 0 1-.394-.008 1.021 1.021 0 0 1-.778-.824v-40.719a1.001 1.001 0 0 1 .195-.75.955.955 0 0 1 .293-.265 1.03 1.03 0 0 1 .372-.133h8.714c.133-.016.266-.008.395.023.129.036.246.09.355.172.106.078.196.18.262.293.07.117.113.239.133.371a.52.52 0 0 1 0 .29zm0 0"/></g><g clip-path="url(#q)"><path fill="#242425" d="M759.047 533.117a7.155 7.155 0 0 1 3.797 3.778c.383.878.562 1.796.547 2.757v34.418c.007.153-.016.297-.067.438a1.15 1.15 0 0 1-.234.37 1.105 1.105 0 0 1-.793.34h-8.426a.972.972 0 0 1-.808-.312 1.177 1.177 0 0 1-.31-.836V544a.915.915 0 0 0-.339-.805 1.11 1.11 0 0 0-.809-.312H739.54a1.163 1.163 0 0 0-.836.312.997.997 0 0 0-.336.805v30.098a.96.96 0 0 1-.023.394.94.94 0 0 1-.172.356.955.955 0 0 1-.293.265c-.113.067-.238.11-.371.13h-8.715a.974.974 0 0 1-.742-.184.982.982 0 0 1-.403-.649.605.605 0 0 1 0-.312V533.69a1.032 1.032 0 0 1 .196-.75.955.955 0 0 1 .293-.265 1.03 1.03 0 0 1 .37-.133h27.86a6.334 6.334 0 0 1 2.68.574zm0 0"/></g><g clip-path="url(#r)"><path fill="#242425" d="M808.496 552.281c.238.227.352.504.34.832v15.047a6.73 6.73 0 0 1-.598 2.762 7.382 7.382 0 0 1-1.508 2.371 6.522 6.522 0 0 1-2.367 1.535 7.047 7.047 0 0 1-2.758.547h-21.593a7.17 7.17 0 0 1-2.754-.547 7.175 7.175 0 0 1-1.77-1.11 7.094 7.094 0 0 1-2.23-3.484 7.136 7.136 0 0 1-.27-2.074V539.81a7.296 7.296 0 0 1 .625-2.891 6.317 6.317 0 0 1 1.508-2.344 7.623 7.623 0 0 1 2.367-1.535 6.579 6.579 0 0 1 2.758-.574h25.184a1.184 1.184 0 0 1 .809.336c.105.11.187.234.245.37.059.141.09.29.09.442v8.07c0 .153-.031.297-.09.438a1.14 1.14 0 0 1-1.054.707h-20.45a1.123 1.123 0 0 0-.804.313.918.918 0 0 0-.34.808v19.762a.915.915 0 0 0 .34.805c.226.218.496.312.804.289h11.942c.137.004.273-.016.402-.059.13-.047.246-.117.348-.21a.996.996 0 0 0 .242-.329c.059-.125.094-.254.102-.394v-10.778a1.096 1.096 0 0 1 .66-1.058c.136-.059.281-.086.43-.086h8.535c.343-.004.632.125.855.39zm0 0"/></g><g clip-path="url(#s)"><path fill="#e73427" d="M258.172 238.57a45.068 45.068 0 0 1 23.8 23.852 42.589 42.589 0 0 1 3.669 17.39V503.88c.004.473-.04.945-.13 1.41-.09.465-.222.918-.398 1.36-.18.437-.398.855-.656 1.253a7.272 7.272 0 0 1-1.973 2.008c-.39.27-.804.496-1.242.68a7.198 7.198 0 0 1-2.754.578h-53.742a6.212 6.212 0 0 1-2.738-.504 6.236 6.236 0 0 1-2.258-1.629 7.317 7.317 0 0 1-1.473-2.414 7.321 7.321 0 0 1-.453-2.793V300.301h-43.05v203.656c.027.961-.13 1.89-.462 2.79a7.379 7.379 0 0 1-1.464 2.417 6.43 6.43 0 0 1-2.278 1.613 6.474 6.474 0 0 1-2.742.524h-48.512a7.435 7.435 0 0 1-1.414-.121 7.157 7.157 0 0 1-2.625-1.043 7.073 7.073 0 0 1-1.105-.883 7.15 7.15 0 0 1-1.602-2.328 7.12 7.12 0 0 1-.59-2.762V300.301H68.852v203.656a6.607 6.607 0 0 1-.278 2.965 6.5 6.5 0 0 1-1.566 2.527c-.356.356-.75.664-1.176.926-.43.266-.879.477-1.355.633-.477.16-.965.262-1.465.305-.5.046-1 .03-1.496-.04H8.37c-.5.07-.996.086-1.496.04a6.266 6.266 0 0 1-1.465-.305 6.323 6.323 0 0 1-1.36-.633 6.368 6.368 0 0 1-1.171-.926 6.41 6.41 0 0 1-1.57-2.527 6.512 6.512 0 0 1-.274-2.965V242.215a6.48 6.48 0 0 1 7.336-7.316h232.266a42.366 42.366 0 0 1 17.535 3.671zm0 0"/></g><g clip-path="url(#t)"><path fill="#1d539f" d="M519.184 444.18a6.886 6.886 0 0 1 2.828.53 6.9 6.9 0 0 1 2.375 1.63 7.445 7.445 0 0 1 1.539 2.469c.351.921.515 1.878.488 2.867v52.074a7.376 7.376 0 0 1-2.027 5.207 6.89 6.89 0 0 1-2.371 1.645 6.852 6.852 0 0 1-2.832.543H335.793c-5.203 0-7.805-2.606-7.805-7.5V242.398c0-5 2.602-7.5 7.805-7.5h56.293c5.203 0 7.8 2.606 7.8 7.5V437.07a6.415 6.415 0 0 0 .583 2.88 6.405 6.405 0 0 0 1.785 2.327 7.98 7.98 0 0 0 2.558 1.52 7.901 7.901 0 0 0 2.934.484zm0 0"/></g><g clip-path="url(#u)"><path fill="#f8b92a" d="M801.031 234.898a7.617 7.617 0 0 1 3.008.528 7.55 7.55 0 0 1 2.559 1.66 7.104 7.104 0 0 1 1.75 2.418c.414.93.617 1.902.617 2.922v262.129c0 1.02-.203 1.992-.617 2.922a7.104 7.104 0 0 1-1.75 2.418 7.55 7.55 0 0 1-2.559 1.66 7.617 7.617 0 0 1-3.008.527h-57.02a7.601 7.601 0 0 1-2.991-.531 7.55 7.55 0 0 1-2.547-1.656 6.953 6.953 0 0 1-1.77-2.41 6.942 6.942 0 0 1-.598-2.93V413.09a6.761 6.761 0 0 0-.472-2.82 6.778 6.778 0 0 0-1.586-2.387 7.236 7.236 0 0 0-2.465-1.528 7.24 7.24 0 0 0-2.867-.449h-79.961a8.025 8.025 0 0 0-5.543 1.977 6.462 6.462 0 0 0-1.785 2.332 6.452 6.452 0 0 0-.582 2.875v91.465c0 5-2.602 7.527-7.801 7.527h-56.606c-5.203 0-7.804-2.605-7.804-7.527v-262.13c0-5.027 2.601-7.527 7.804-7.527h56.708c5.203 0 7.804 2.606 7.804 7.528v88.808c0 5 2.602 7.496 7.805 7.496h80.144a7.053 7.053 0 0 0 2.907-.511 7.059 7.059 0 0 0 2.453-1.649 7.503 7.503 0 0 0 1.52-2.406 7.563 7.563 0 0 0 .534-2.8v-88.938a6.951 6.951 0 0 1 .594-2.922 7.019 7.019 0 0 1 1.746-2.418 7.543 7.543 0 0 1 2.465-1.625 7.492 7.492 0 0 1 2.895-.563zm0 0"/></g></svg>