<svg xmlns="http://www.w3.org/2000/svg" xmlns:xlink="http://www.w3.org/1999/xlink" width="2000" zoomAndPan="magnify" viewBox="0 0 1500 374.999991" height="500" preserveAspectRatio="xMidYMid meet" version="1.0"><defs><clipPath id="54f4a4138b"><path d="M 1158.308594 99.488281 L 1243.808594 99.488281 L 1243.808594 193.988281 L 1158.308594 193.988281 Z M 1158.308594 99.488281 " clip-rule="nonzero"/></clipPath><clipPath id="116449d8c8"><path d="M 1218.113281 0 L 1451.363281 0 L 1451.363281 99.210938 L 1218.113281 99.210938 Z M 1218.113281 0 " clip-rule="nonzero"/></clipPath><clipPath id="72e87de021"><path d="M 1075.042969 22 L 1158.292969 22 L 1158.292969 93 L 1075.042969 93 Z M 1075.042969 22 " clip-rule="nonzero"/></clipPath><clipPath id="df0dd6a672"><path d="M 1075.042969 18.449219 L 1158.292969 18.449219 L 1158.292969 96.449219 L 1075.042969 96.449219 Z M 1075.042969 18.449219 " clip-rule="nonzero"/></clipPath><clipPath id="31cc394f6e"><path d="M 1304 113 L 1379 113 L 1379 271.714844 L 1304 271.714844 Z M 1304 113 " clip-rule="nonzero"/></clipPath><clipPath id="e8decfef42"><path d="M 1222 257 L 1267 257 L 1267 293.632812 L 1222 293.632812 Z M 1222 257 " clip-rule="nonzero"/></clipPath><clipPath id="507c15f1fe"><path d="M 1261 225 L 1287.949219 225 L 1287.949219 271 L 1261 271 Z M 1261 225 " clip-rule="nonzero"/></clipPath><clipPath id="94a949c41b"><path d="M 1220 205.132812 L 1265 205.132812 L 1265 242 L 1220 242 Z M 1220 205.132812 " clip-rule="nonzero"/></clipPath><clipPath id="065752fc88"><path d="M 1199.449219 228 L 1226 228 L 1226 274 L 1199.449219 274 Z M 1199.449219 228 " clip-rule="nonzero"/></clipPath><clipPath id="2b03f5371a"><path d="M 1457 146.636719 L 1500 146.636719 L 1500 247 L 1457 247 Z M 1457 146.636719 " clip-rule="nonzero"/></clipPath></defs><g clip-path="url(#54f4a4138b)"><path fill="#8cc84b" d="M 1197.113281 100.746094 C 1199.460938 99.414062 1202.457031 99.40625 1204.746094 100.746094 L 1239.808594 120.566406 C 1242.003906 121.804688 1243.472656 124.257812 1243.449219 126.789062 L 1243.449219 166.535156 C 1243.464844 169.175781 1241.855469 171.679688 1239.539062 172.894531 L 1204.664062 192.621094 C 1204.066406 192.953125 1203.4375 193.199219 1202.777344 193.359375 C 1202.113281 193.523438 1201.441406 193.59375 1200.761719 193.574219 C 1200.078125 193.554688 1199.414062 193.449219 1198.761719 193.25 C 1198.109375 193.050781 1197.492188 192.769531 1196.917969 192.40625 L 1186.449219 186.34375 C 1185.738281 185.917969 1184.933594 185.578125 1184.429688 184.886719 C 1184.875 184.285156 1185.667969 184.210938 1186.316406 183.945312 C 1187.769531 183.480469 1189.105469 182.765625 1190.441406 182.011719 C 1190.78125 181.777344 1191.195312 181.867188 1191.515625 182.078125 L 1200.441406 187.253906 C 1201.078125 187.621094 1201.726562 187.136719 1202.269531 186.828125 L 1236.515625 167.445312 C 1236.9375 167.242188 1237.175781 166.792969 1237.140625 166.328125 L 1237.140625 126.96875 C 1237.1875 126.4375 1236.882812 125.953125 1236.40625 125.738281 L 1201.617188 106.09375 C 1201.410156 105.953125 1201.183594 105.882812 1200.933594 105.878906 C 1200.683594 105.878906 1200.457031 105.949219 1200.25 106.09375 L 1165.511719 125.777344 C 1165.042969 125.992188 1164.71875 126.46875 1164.777344 127 L 1164.777344 166.359375 C 1164.738281 166.824219 1164.984375 167.265625 1165.410156 167.464844 L 1174.691406 172.71875 C 1176.4375 173.660156 1178.578125 174.191406 1180.496094 173.5 C 1180.917969 173.339844 1181.304688 173.121094 1181.65625 172.84375 C 1182.011719 172.566406 1182.316406 172.242188 1182.570312 171.871094 C 1182.824219 171.503906 1183.019531 171.101562 1183.152344 170.671875 C 1183.285156 170.242188 1183.347656 169.800781 1183.347656 169.351562 L 1183.355469 130.226562 C 1183.316406 129.648438 1183.859375 129.167969 1184.421875 129.226562 L 1188.882812 129.226562 C 1189.472656 129.210938 1189.933594 129.835938 1189.851562 130.417969 L 1189.84375 169.789062 C 1189.847656 173.289062 1188.414062 177.089844 1185.1875 178.808594 C 1181.214844 180.867188 1176.296875 180.433594 1172.371094 178.453125 L 1162.390625 172.917969 C 1160.039062 171.742188 1158.464844 169.199219 1158.480469 166.558594 L 1158.480469 126.816406 C 1158.484375 126.171875 1158.574219 125.539062 1158.746094 124.914062 C 1158.921875 124.292969 1159.171875 123.707031 1159.503906 123.152344 C 1159.835938 122.597656 1160.234375 122.097656 1160.699219 121.648438 C 1161.160156 121.203125 1161.675781 120.824219 1162.242188 120.515625 Z M 1207.222656 128.296875 C 1212.292969 128 1217.722656 128.101562 1222.285156 130.605469 C 1225.816406 132.527344 1227.773438 136.554688 1227.839844 140.492188 C 1227.738281 141.023438 1227.1875 141.316406 1226.683594 141.277344 C 1225.214844 141.273438 1223.738281 141.296875 1222.265625 141.269531 C 1221.640625 141.292969 1221.28125 140.714844 1221.199219 140.164062 C 1220.777344 138.277344 1219.753906 136.414062 1217.984375 135.503906 C 1215.273438 134.140625 1212.125 134.210938 1209.167969 134.238281 C 1207.007812 134.355469 1204.683594 134.542969 1202.855469 135.8125 C 1201.445312 136.78125 1201.023438 138.757812 1201.527344 140.292969 C 1201.996094 141.421875 1203.296875 141.785156 1204.355469 142.121094 C 1210.46875 143.722656 1216.941406 143.59375 1222.9375 145.671875 C 1225.417969 146.53125 1227.847656 148.203125 1228.699219 150.808594 C 1229.808594 154.300781 1229.324219 158.476562 1226.847656 161.277344 C 1224.839844 163.585938 1221.917969 164.8125 1218.996094 165.523438 C 1215.113281 166.394531 1211.085938 166.414062 1207.140625 166.023438 C 1203.433594 165.601562 1199.574219 164.625 1196.714844 162.089844 C 1194.265625 159.960938 1193.074219 156.640625 1193.191406 153.4375 C 1193.21875 152.894531 1193.757812 152.519531 1194.277344 152.5625 L 1198.679688 152.5625 C 1199.273438 152.519531 1199.707031 153.03125 1199.738281 153.59375 C 1200.011719 155.359375 1200.683594 157.273438 1202.246094 158.300781 C 1205.257812 160.25 1209.035156 160.117188 1212.480469 160.171875 C 1215.339844 160.046875 1218.542969 160.007812 1220.878906 158.109375 C 1222.109375 157.03125 1222.472656 155.226562 1222.140625 153.671875 C 1221.777344 152.359375 1220.378906 151.75 1219.203125 151.316406 C 1213.171875 149.402344 1206.625 150.097656 1200.652344 147.929688 C 1198.226562 147.070312 1195.878906 145.445312 1194.949219 142.945312 C 1193.648438 139.414062 1194.246094 135.035156 1196.984375 132.328125 C 1199.625 129.632812 1203.5 128.59375 1207.171875 128.222656 Z M 1207.222656 128.296875 " fill-opacity="1" fill-rule="nonzero"/></g><g clip-path="url(#116449d8c8)"><path fill="#000000" d="M 1273.171875 -4.460938 L 1317.152344 -4.460938 L 1317.152344 -0.976562 L 1277.203125 -0.976562 L 1277.203125 25.25 L 1314.769531 25.25 L 1314.769531 28.734375 L 1277.203125 28.734375 L 1277.203125 57.53125 L 1317.605469 57.53125 L 1317.605469 61.019531 L 1273.171875 61.019531 Z M 1321.089844 -4.460938 L 1325.761719 -4.460938 L 1346.46875 24.332031 L 1367.632812 -4.460938 L 1396.417969 -41.039062 L 1349.125 27.359375 L 1373.496094 61.019531 L 1368.636719 61.019531 L 1346.46875 30.382812 L 1324.207031 61.019531 L 1319.441406 61.019531 L 1343.992188 27.359375 Z M 1375.238281 -0.976562 L 1375.238281 -4.460938 L 1425.355469 -4.460938 L 1425.355469 -0.976562 L 1402.265625 -0.976562 L 1402.265625 61.015625 L 1398.234375 61.015625 L 1398.234375 -0.976562 Z M 1218.15625 -4.460938 L 1223.195312 -4.460938 L 1292.679688 99.203125 L 1263.96875 61.019531 L 1222.371094 0.492188 L 1222.191406 61.019531 L 1218.160156 61.019531 L 1218.160156 -4.460938 Z M 1424.945312 56.480469 C 1424.125 56.480469 1423.503906 55.84375 1423.503906 55.019531 C 1423.503906 54.199219 1424.125 53.5625 1424.945312 53.5625 C 1425.777344 53.5625 1426.386719 54.199219 1426.386719 55.019531 C 1426.386719 55.84375 1425.777344 56.480469 1424.945312 56.480469 Z M 1428.90625 52.640625 L 1431.066406 52.640625 C 1431.09375 53.808594 1431.949219 54.589844 1433.199219 54.589844 C 1434.601562 54.589844 1435.394531 53.75 1435.394531 52.171875 L 1435.394531 42.191406 L 1437.59375 42.191406 L 1437.59375 52.183594 C 1437.59375 55.019531 1435.945312 56.65625 1433.222656 56.65625 C 1430.664062 56.65625 1428.90625 55.070312 1428.90625 52.640625 Z M 1440.46875 52.515625 L 1442.644531 52.515625 C 1442.828125 53.859375 1444.144531 54.707031 1446.039062 54.707031 C 1447.800781 54.707031 1449.09375 53.800781 1449.09375 52.546875 C 1449.09375 51.46875 1448.269531 50.820312 1446.398438 50.378906 L 1444.578125 49.941406 C 1442.015625 49.34375 1440.851562 48.109375 1440.851562 46.035156 C 1440.851562 43.519531 1442.910156 41.847656 1445.996094 41.847656 C 1448.871094 41.847656 1450.964844 43.519531 1451.09375 45.898438 L 1448.957031 45.898438 C 1448.753906 44.597656 1447.613281 43.78125 1445.964844 43.78125 C 1444.230469 43.78125 1443.074219 44.617188 1443.074219 45.890625 C 1443.074219 46.898438 1443.820312 47.472656 1445.664062 47.90625 L 1447.222656 48.285156 C 1450.125 48.964844 1451.320312 50.140625 1451.320312 52.261719 C 1451.320312 54.960938 1449.222656 56.65625 1445.871094 56.65625 C 1442.730469 56.65625 1440.625 55.042969 1440.46875 52.515625 Z M 1440.46875 52.515625 " fill-opacity="1" fill-rule="nonzero"/></g><path fill="#00d8ff" d="M 1124.101562 57.382812 C 1124.101562 57.871094 1124.054688 58.355469 1123.957031 58.832031 C 1123.863281 59.3125 1123.722656 59.777344 1123.535156 60.230469 C 1123.347656 60.679688 1123.121094 61.109375 1122.847656 61.515625 C 1122.578125 61.921875 1122.269531 62.296875 1121.925781 62.640625 C 1121.578125 62.988281 1121.203125 63.296875 1120.796875 63.566406 C 1120.390625 63.839844 1119.964844 64.066406 1119.511719 64.253906 C 1119.0625 64.441406 1118.597656 64.582031 1118.117188 64.675781 C 1117.640625 64.773438 1117.15625 64.820312 1116.667969 64.820312 C 1116.179688 64.820312 1115.695312 64.773438 1115.21875 64.675781 C 1114.738281 64.582031 1114.273438 64.441406 1113.824219 64.253906 C 1113.371094 64.066406 1112.945312 63.839844 1112.539062 63.566406 C 1112.132812 63.296875 1111.757812 62.988281 1111.410156 62.640625 C 1111.066406 62.296875 1110.757812 61.921875 1110.488281 61.515625 C 1110.214844 61.109375 1109.988281 60.679688 1109.800781 60.230469 C 1109.613281 59.777344 1109.472656 59.3125 1109.375 58.832031 C 1109.28125 58.355469 1109.234375 57.871094 1109.234375 57.382812 C 1109.234375 56.894531 1109.28125 56.410156 1109.375 55.929688 C 1109.472656 55.453125 1109.613281 54.988281 1109.800781 54.535156 C 1109.988281 54.085938 1110.214844 53.65625 1110.488281 53.25 C 1110.757812 52.84375 1111.066406 52.46875 1111.410156 52.121094 C 1111.757812 51.777344 1112.132812 51.46875 1112.539062 51.195312 C 1112.945312 50.925781 1113.371094 50.695312 1113.824219 50.511719 C 1114.273438 50.324219 1114.738281 50.183594 1115.21875 50.085938 C 1115.695312 49.992188 1116.179688 49.945312 1116.667969 49.945312 C 1117.15625 49.945312 1117.640625 49.992188 1118.117188 50.085938 C 1118.597656 50.183594 1119.0625 50.324219 1119.511719 50.511719 C 1119.964844 50.695312 1120.390625 50.925781 1120.796875 51.195312 C 1121.203125 51.46875 1121.578125 51.777344 1121.925781 52.121094 C 1122.269531 52.46875 1122.578125 52.84375 1122.847656 53.25 C 1123.121094 53.65625 1123.347656 54.085938 1123.535156 54.535156 C 1123.722656 54.988281 1123.863281 55.453125 1123.957031 55.929688 C 1124.054688 56.410156 1124.101562 56.894531 1124.101562 57.382812 Z M 1124.101562 57.382812 " fill-opacity="1" fill-rule="nonzero"/><g clip-path="url(#72e87de021)"><path stroke-linecap="butt" transform="matrix(0.148185, 0, 0, 0.148273, 1076.727475, 22.147938)" fill="none" stroke-linejoin="miter" d="M 269.531259 135.627649 C 336.882663 135.627649 399.462793 145.296279 446.648317 161.524826 C 503.48183 181.099193 538.436023 210.763711 538.436023 237.635654 C 538.436023 265.61409 501.399341 297.122761 440.348127 317.355753 C 394.190668 332.635878 333.482142 340.618426 269.531259 340.618426 C 203.972378 340.618426 141.893099 333.136434 95.234788 317.197683 C 36.186982 297.01738 0.626495 265.087189 0.626495 237.635654 C 0.626495 211.000816 33.99905 181.547058 90.041745 162.025382 C 137.385432 145.50704 201.494479 135.627649 269.531259 135.627649 Z M 269.531259 135.627649 " stroke="#00d8ff" stroke-width="24" stroke-opacity="1" stroke-miterlimit="4"/></g><g clip-path="url(#df0dd6a672)"><path stroke-linecap="butt" transform="matrix(0.148185, 0, 0, 0.148273, 1076.727475, 22.147938)" fill="none" stroke-linejoin="miter" d="M 180.748665 186.921447 C 214.384826 128.567177 254.03121 79.196567 291.647826 46.449679 C 337.014466 6.984805 380.166814 -8.479735 403.416887 4.929892 C 427.668665 18.91911 436.473115 66.761707 423.503686 129.726359 C 413.697532 177.358196 390.262934 233.947348 358.313853 289.324628 C 325.573954 346.12454 288.06278 396.153776 250.947016 428.610869 C 203.972378 469.68279 158.553016 484.541394 134.749369 470.815627 C 111.68382 457.511381 102.85301 413.910335 113.924473 355.58241 C 123.282496 306.317181 146.769816 245.855307 180.722304 186.921447 Z M 180.748665 186.921447 " stroke="#00d8ff" stroke-width="24" stroke-opacity="1" stroke-miterlimit="4"/><path stroke-linecap="butt" transform="matrix(0.148185, 0, 0, 0.148273, 1076.727475, 22.147938)" fill="none" stroke-linejoin="miter" d="M 180.827747 289.482698 C 147.086143 231.207464 124.099676 172.194568 114.504407 123.219134 C 102.958452 64.232583 111.130247 19.12987 134.38032 5.667553 C 158.605737 -8.374355 204.420508 7.906882 252.502293 50.612196 C 288.87996 82.884873 326.206609 131.438787 358.234771 186.763377 C 391.080114 243.510599 415.70094 300.969137 425.269848 349.338635 C 437.395737 410.564515 427.589583 457.326965 403.812297 471.079078 C 380.773108 484.436014 338.569743 470.315071 293.572151 431.587859 C 255.560126 398.867316 214.885678 348.337524 180.827747 289.482698 Z M 180.827747 289.482698 " stroke="#00d8ff" stroke-width="24" stroke-opacity="1" stroke-miterlimit="4"/></g><g clip-path="url(#31cc394f6e)"><path fill="#01ec64" d="M 1354.839844 130.6875 C 1348.191406 122.800781 1342.464844 114.789062 1341.292969 113.125 C 1341.265625 113.097656 1341.234375 113.074219 1341.195312 113.058594 C 1341.160156 113.042969 1341.117188 113.03125 1341.078125 113.03125 C 1341.039062 113.03125 1340.996094 113.042969 1340.960938 113.058594 C 1340.921875 113.074219 1340.890625 113.097656 1340.863281 113.125 C 1339.691406 114.789062 1333.964844 122.800781 1327.316406 130.6875 C 1270.230469 203.472656 1336.304688 252.589844 1336.304688 252.589844 L 1336.859375 252.957031 C 1337.351562 260.539062 1338.585938 271.449219 1338.585938 271.449219 L 1343.511719 271.449219 C 1343.511719 271.449219 1344.742188 260.601562 1345.234375 252.957031 L 1345.789062 252.527344 C 1345.851562 252.589844 1411.925781 203.472656 1354.839844 130.6875 Z M 1341.046875 251.480469 C 1341.046875 251.480469 1338.089844 248.953125 1337.289062 247.660156 L 1337.289062 247.535156 L 1340.863281 168.28125 C 1340.863281 168.035156 1341.230469 168.035156 1341.230469 168.28125 L 1344.804688 247.535156 L 1344.804688 247.660156 C 1344.003906 248.953125 1341.046875 251.480469 1341.046875 251.480469 Z M 1341.046875 251.480469 " fill-opacity="1" fill-rule="nonzero"/></g><path fill="#00d8ff" d="M 1225.398438 272.566406 C 1223.882812 272.566406 1222.65625 271.339844 1222.65625 269.824219 L 1222.65625 260.46875 C 1222.765625 254.296875 1226.671875 250.636719 1233.105469 250.636719 L 1253.171875 250.636719 C 1261.523438 250.636719 1266.507812 245.9375 1266.507812 238.0625 L 1266.507812 228.707031 C 1266.507812 227.191406 1267.738281 225.964844 1269.25 225.964844 C 1270.761719 225.964844 1271.992188 227.191406 1271.992188 228.707031 L 1271.992188 237.84375 C 1271.992188 249.03125 1264.605469 256.117188 1253.171875 256.117188 L 1233.105469 256.117188 C 1228.796875 256.117188 1228.175781 258.339844 1228.140625 260.519531 L 1228.140625 269.824219 C 1228.140625 271.339844 1226.910156 272.566406 1225.398438 272.566406 Z M 1225.398438 272.566406 " fill-opacity="1" fill-rule="nonzero"/><g clip-path="url(#e8decfef42)"><path fill="#00d8ff" d="M 1244.289062 293.582031 C 1240.757812 293.582031 1237.15625 293.304688 1233.722656 292.746094 C 1226.996094 291.605469 1222.65625 286.441406 1222.65625 279.582031 L 1222.65625 260.46875 C 1222.65625 258.953125 1223.882812 257.726562 1225.398438 257.726562 C 1226.910156 257.726562 1228.140625 258.953125 1228.140625 260.46875 L 1228.140625 279.582031 C 1228.140625 283.75 1230.5625 286.644531 1234.621094 287.332031 C 1240.972656 288.363281 1247.945312 288.355469 1253.734375 287.296875 C 1257.160156 286.710938 1259.304688 285.84375 1260.320312 284.640625 C 1261.148438 283.667969 1261.5 282.152344 1261.5 279.578125 L 1261.5 270.730469 L 1246.40625 270.730469 C 1244.894531 270.730469 1243.664062 269.503906 1243.664062 267.988281 C 1243.664062 266.476562 1244.894531 265.25 1246.40625 265.25 L 1264.238281 265.25 C 1265.753906 265.25 1266.980469 266.476562 1266.980469 267.988281 L 1266.980469 279.578125 C 1266.980469 282.226562 1266.699219 285.59375 1264.503906 288.183594 C 1262.59375 290.433594 1259.476562 291.871094 1254.6875 292.691406 C 1251.472656 293.285156 1247.917969 293.582031 1244.289062 293.582031 Z M 1244.289062 293.582031 " fill-opacity="1" fill-rule="nonzero"/></g><g clip-path="url(#507c15f1fe)"><path fill="#00d8ff" d="M 1271.773438 270.738281 L 1264.242188 270.738281 C 1262.730469 270.738281 1261.5 269.511719 1261.5 267.996094 C 1261.5 266.484375 1262.730469 265.257812 1264.242188 265.257812 L 1271.773438 265.257812 C 1277.058594 265.257812 1279.570312 263.386719 1280.730469 258.582031 C 1282.496094 251.203125 1282.496094 246.914062 1280.726562 239.464844 C 1279.125 232.8125 1276.730469 231.449219 1273.636719 231.449219 L 1271.992188 231.449219 L 1271.992188 237.84375 C 1271.992188 239.355469 1270.761719 240.695312 1269.25 240.695312 C 1267.738281 240.695312 1266.507812 239.574219 1266.507812 238.058594 L 1266.507812 228.707031 C 1266.507812 227.191406 1267.738281 225.964844 1269.25 225.964844 L 1273.636719 225.964844 C 1282.132812 225.964844 1284.796875 232.9375 1286.058594 238.1875 C 1288.015625 246.433594 1288.015625 251.695312 1286.058594 259.863281 C 1284.316406 267.082031 1279.511719 270.738281 1271.773438 270.738281 Z M 1271.773438 270.738281 " fill-opacity="1" fill-rule="nonzero"/></g><path fill="#00d8ff" d="M 1250.980469 285.359375 C 1247.453125 285.359375 1244.582031 282.484375 1244.582031 278.957031 C 1244.582031 275.433594 1247.453125 272.566406 1250.980469 272.566406 C 1254.507812 272.566406 1257.375 275.433594 1257.375 278.957031 C 1257.339844 282.5 1254.46875 285.359375 1250.980469 285.359375 Z M 1250.980469 278.046875 C 1250.476562 278.046875 1250.066406 278.453125 1250.066406 278.957031 C 1250.066406 279.949219 1251.882812 279.964844 1251.894531 278.929688 C 1251.894531 278.453125 1251.480469 278.046875 1250.980469 278.046875 Z M 1250.980469 278.046875 " fill-opacity="1" fill-rule="nonzero"/><path fill="#00d8ff" d="M 1218.09375 273.480469 C 1216.582031 273.480469 1215.355469 272.25 1215.355469 270.738281 L 1215.355469 261.601562 C 1215.355469 250.414062 1222.742188 243.328125 1234.171875 243.328125 L 1254.238281 243.328125 C 1258.546875 243.328125 1259.167969 241.105469 1259.207031 238.929688 L 1259.207031 229.621094 C 1259.207031 228.105469 1260.433594 226.878906 1261.949219 226.878906 C 1263.460938 226.878906 1264.6875 228.105469 1264.6875 229.621094 L 1264.6875 238.980469 C 1264.578125 245.152344 1260.671875 248.808594 1254.238281 248.808594 L 1234.171875 248.808594 C 1225.820312 248.808594 1220.835938 253.507812 1220.835938 261.382812 L 1220.835938 270.738281 C 1220.835938 272.25 1219.609375 273.480469 1218.09375 273.480469 Z M 1218.09375 273.480469 " fill-opacity="1" fill-rule="nonzero"/><g clip-path="url(#94a949c41b)"><path fill="#00d8ff" d="M 1261.949219 241.722656 C 1260.433594 241.722656 1259.207031 240.492188 1259.207031 238.980469 L 1259.207031 219.859375 C 1259.207031 215.691406 1256.785156 212.796875 1252.722656 212.109375 C 1246.375 211.078125 1239.398438 211.085938 1233.609375 212.144531 C 1230.1875 212.730469 1228.039062 213.597656 1227.019531 214.796875 C 1226.195312 215.769531 1225.84375 217.285156 1225.84375 219.859375 L 1225.84375 228.707031 L 1240.933594 228.707031 C 1242.449219 228.707031 1243.675781 229.933594 1243.675781 231.449219 C 1243.675781 232.960938 1242.449219 234.1875 1240.933594 234.1875 L 1223.101562 234.1875 C 1221.589844 234.1875 1220.359375 232.960938 1220.359375 231.449219 L 1220.359375 219.859375 C 1220.359375 217.210938 1220.644531 213.84375 1222.839844 211.253906 C 1224.746094 209.003906 1227.863281 207.566406 1232.652344 206.746094 C 1239.011719 205.59375 1246.664062 205.570312 1253.621094 206.703125 C 1260.355469 207.84375 1264.691406 213.007812 1264.691406 219.863281 L 1264.691406 238.980469 C 1264.6875 240.492188 1263.464844 241.722656 1261.949219 241.722656 Z M 1261.949219 241.722656 " fill-opacity="1" fill-rule="nonzero"/></g><g clip-path="url(#065752fc88)"><path fill="#00d8ff" d="M 1218.09375 273.480469 L 1213.710938 273.480469 C 1205.210938 273.480469 1202.550781 266.507812 1201.285156 261.257812 C 1199.332031 253.011719 1199.332031 247.75 1201.285156 239.578125 C 1203.027344 232.363281 1207.835938 228.707031 1215.574219 228.707031 L 1223.101562 228.707031 C 1224.617188 228.707031 1225.84375 229.933594 1225.84375 231.449219 C 1225.84375 232.960938 1224.617188 234.1875 1223.101562 234.1875 L 1215.574219 234.1875 C 1210.289062 234.1875 1207.777344 236.058594 1206.613281 240.863281 C 1204.847656 248.242188 1204.847656 252.53125 1206.617188 259.980469 C 1208.21875 266.632812 1210.613281 267.996094 1213.710938 267.996094 L 1215.355469 267.996094 L 1215.355469 261.601562 C 1215.355469 260.089844 1216.582031 258.75 1218.09375 258.75 C 1219.609375 258.75 1220.835938 259.871094 1220.835938 261.386719 L 1220.835938 270.742188 C 1220.835938 272.25 1219.609375 273.480469 1218.09375 273.480469 Z M 1218.09375 273.480469 " fill-opacity="1" fill-rule="nonzero"/></g><path fill="#00d8ff" d="M 1236.367188 226.878906 C 1232.839844 226.878906 1229.96875 224.011719 1229.96875 220.488281 C 1230.003906 216.945312 1232.871094 214.085938 1236.367188 214.085938 C 1239.894531 214.085938 1242.761719 216.960938 1242.761719 220.488281 C 1242.761719 224.011719 1239.894531 226.878906 1236.367188 226.878906 Z M 1236.367188 219.570312 C 1235.859375 219.570312 1235.457031 219.984375 1235.453125 220.515625 C 1235.453125 221.464844 1237.28125 221.492188 1237.28125 220.488281 C 1237.28125 220 1236.855469 219.570312 1236.367188 219.570312 Z M 1236.367188 219.570312 " fill-opacity="1" fill-rule="nonzero"/><path fill="#4e7896" d="M 1457.589844 278.761719 C 1457.589844 278.761719 1451.015625 282.757812 1462.160156 283.898438 C 1475.578125 285.609375 1482.726562 285.324219 1497.578125 282.472656 C 1500.570312 284.304688 1503.714844 285.824219 1507.003906 287.039062 C 1473.589844 301.308594 1431.304688 286.183594 1457.585938 278.761719 Z M 1453.3125 260.214844 C 1453.3125 260.214844 1446.171875 265.632812 1457.3125 266.78125 C 1471.878906 268.207031 1483.304688 268.492188 1503.023438 264.503906 C 1504.964844 266.472656 1507.25 267.898438 1509.875 268.78125 C 1469.597656 280.765625 1424.464844 269.921875 1453.3125 260.21875 Z M 1532.152344 292.738281 C 1532.152344 292.738281 1537.007812 296.734375 1526.726562 299.871094 C 1507.585938 305.585938 1446.460938 307.296875 1429.320312 299.871094 C 1423.320312 297.308594 1434.746094 293.597656 1438.40625 293.027344 C 1442.125 292.171875 1444.128906 292.171875 1444.128906 292.171875 C 1437.550781 287.605469 1400.421875 301.585938 1425.277344 305.578125 C 1493.546875 316.707031 1549.820312 300.726562 1532.109375 292.738281 Z M 1460.679688 240.804688 C 1460.679688 240.804688 1429.542969 248.230469 1449.539062 250.792969 C 1458.109375 251.9375 1474.960938 251.648438 1490.671875 250.511719 C 1503.523438 249.367188 1516.386719 247.09375 1516.386719 247.09375 C 1516.386719 247.09375 1511.816406 249.089844 1508.671875 251.085938 C 1476.96875 259.363281 1416.121094 255.652344 1433.546875 247.09375 C 1448.398438 239.957031 1460.683594 240.816406 1460.683594 240.816406 Z M 1516.386719 271.910156 C 1548.378906 255.355469 1533.527344 239.386719 1523.242188 241.378906 C 1520.675781 241.949219 1519.523438 242.519531 1519.523438 242.519531 C 1519.523438 242.519531 1520.378906 240.8125 1522.378906 240.238281 C 1542.664062 233.105469 1558.660156 261.640625 1515.804688 272.765625 C 1515.804688 272.765625 1516.085938 272.480469 1516.375 271.910156 Z M 1463.835938 316.996094 C 1494.679688 318.992188 1541.820312 315.851562 1542.957031 301.292969 C 1542.957031 301.292969 1540.675781 307.007812 1517.535156 311.28125 C 1491.253906 316.128906 1458.691406 315.550781 1439.550781 312.421875 C 1439.550781 312.421875 1443.550781 315.839844 1463.835938 316.988281 Z M 1463.835938 316.996094 " fill-opacity="1" fill-rule="nonzero"/><g clip-path="url(#2b03f5371a)"><path fill="#f58219" d="M 1497.011719 146.640625 C 1497.011719 146.640625 1514.722656 164.617188 1480.160156 191.726562 C 1452.453125 213.699219 1473.878906 226.253906 1480.160156 240.523438 C 1463.878906 225.96875 1452.167969 213.125 1460.167969 201.148438 C 1471.875 183.449219 1504.15625 174.941406 1497.011719 146.640625 Z M 1487.925781 228.539062 C 1496.210938 237.953125 1485.640625 246.515625 1485.640625 246.515625 C 1485.640625 246.515625 1506.78125 235.675781 1497.066406 222.257812 C 1488.210938 209.417969 1481.347656 203.140625 1518.488281 181.738281 C 1518.488281 181.738281 1459.929688 196.292969 1487.925781 228.539062 Z M 1487.925781 228.539062 " fill-opacity="1" fill-rule="nonzero"/></g></svg>